<svg viewBox="0 0 24 24" fill="none" xmlns="http://www.w3.org/2000/svg">
  <path d="M12 22c-3.5 0-6-2.5-6-6 0-2 1-3.5 2.5-4.5C7.5 10 7 8.5 7 7c0-3.5 2.5-6 5-6s5 2.5 5 6c0 1.5-.5 3-1.5 4.5 1.5 1 2.5 2.5 2.5 4.5 0 3.5-2.5 6-6 6z" fill="#FF5722"/>
  <path d="M12 3v16" stroke="#fff" stroke-width="1.5" stroke-linecap="round"/>
  <path d="M9 9c-1.5 0-2.5 1-2.5 2.5S7.5 14 9 14" stroke="#fff" stroke-width="1.5" stroke-linecap="round" fill="none"/>
  <path d="M15 9c1.5 0 2.5 1 2.5 2.5S16.5 14 15 14" stroke="#fff" stroke-width="1.5" stroke-linecap="round" fill="none"/>
</svg>